<svg width="60" height="61" viewBox="0 0 60 61" fill="none" xmlns="http://www.w3.org/2000/svg">
<rect y="0.405518" width="60" height="60" rx="12" fill="#E85626"/>
<g clip-path="url(#clip0_500_172)">
<path d="M32.4922 12.4055C32.1038 12.4055 31.7891 12.7203 31.7891 13.1086C31.7891 13.497 32.1038 13.8118 32.4922 13.8118C40.268 13.8118 46.5939 20.138 46.5939 27.9135C46.5939 28.3019 46.909 28.6166 47.2971 28.6166C47.6854 28.6166 48.0002 28.3019 48.0002 27.9135C48.0002 19.3626 41.0434 12.4055 32.4922 12.4055Z" fill="white"/>
<path d="M43.0673 28.6169C43.4557 28.6169 43.7705 28.3019 43.7705 27.9138C43.7705 21.6947 38.711 16.6353 32.4922 16.6353C32.1038 16.6353 31.7891 16.9503 31.7891 17.3384C31.7891 17.7267 32.1038 18.0415 32.4922 18.0415C37.9356 18.0415 42.3642 22.4701 42.3642 27.9138C42.3642 28.3019 42.679 28.6169 43.0673 28.6169Z" fill="white"/>
<path d="M38.1337 27.9139C38.1337 28.302 38.4484 28.6171 38.8368 28.6171C39.2251 28.6171 39.5399 28.302 39.5399 27.9139C39.5399 24.0278 36.3783 20.8662 32.4922 20.8662C32.1038 20.8662 31.7891 21.181 31.7891 21.5691C31.7891 21.9574 32.1038 22.2722 32.4922 22.2722C35.603 22.2722 38.1337 24.8029 38.1337 27.9139Z" fill="white"/>
<path d="M31.7891 25.7991C31.7891 26.1872 32.1038 26.5019 32.4922 26.5019C33.2706 26.5019 33.9039 27.1353 33.9039 27.9139C33.9039 28.302 34.2187 28.6171 34.6071 28.6171C34.9951 28.6171 35.3102 28.302 35.3102 27.9139C35.3102 26.3599 34.0459 25.0959 32.4922 25.0959C32.1038 25.0959 31.7891 25.4107 31.7891 25.7991Z" fill="white"/>
<path d="M25.1787 35.2346C25.1787 35.623 24.864 35.9377 24.4756 35.9377C24.0872 35.9377 23.7725 35.623 23.7725 35.2346C23.7725 34.8465 24.0872 34.5315 24.4756 34.5315C24.864 34.5315 25.1787 34.8465 25.1787 35.2346Z" fill="white"/>
<path d="M31.2679 47.552C34.4696 49.1211 38.3214 48.4682 40.8532 45.9364L42.3069 44.4827C43.0963 43.6941 43.0966 42.4167 42.3072 41.6276L36.6899 36.0109C35.9019 35.2218 34.6242 35.2207 33.8354 36.0106L31.4486 38.3976C30.9811 38.8651 30.2596 38.9604 29.7334 38.6245C28.8753 38.076 28.0406 37.4712 27.2527 36.8269C26.9519 36.581 26.5092 36.6255 26.2633 36.926C26.0175 37.2268 26.062 37.6698 26.3625 37.9153C27.1928 38.5943 28.072 39.2315 28.9764 39.8094C30.0544 40.4979 31.5123 40.3224 32.4429 39.3919L34.8302 37.0046C35.0689 36.7656 35.4556 36.7651 35.6954 37.0048L41.3129 42.6219C41.5522 42.8614 41.5527 43.2486 41.3129 43.4879L39.8589 44.9422C37.7498 47.0513 34.5462 47.5926 31.8867 46.2894C22.1437 41.5117 16.8428 33.9361 14.1116 28.4221C12.8051 25.7851 13.3475 22.5935 15.4616 20.48L16.8838 19.0581C17.1222 18.8192 17.5092 18.8184 17.7487 19.0584L23.3668 24.6763C23.6046 24.9138 23.6071 25.3011 23.3662 25.5414L20.9795 27.9285C20.0489 28.859 19.8734 30.3169 20.562 31.3952C20.9677 32.03 21.4049 32.6562 21.8619 33.2563C22.097 33.5653 22.5381 33.6249 22.8471 33.3898C23.1561 33.1547 23.216 32.7136 22.9806 32.4043C22.5472 31.835 22.1319 31.2406 21.7469 30.6383C21.411 30.1117 21.5063 29.3902 21.9737 28.9228L24.3602 26.5363C25.1493 25.7483 25.1501 24.4703 24.3608 23.6817L18.7432 18.0644C17.9555 17.2753 16.6775 17.2742 15.889 18.0642L14.4673 19.4858C11.9262 22.0261 11.2769 25.8683 12.8515 29.0464C15.6797 34.7557 21.1701 42.6004 31.2679 47.552Z" fill="white"/>
</g>
<defs>
<clipPath id="clip0_500_172">
<rect width="36" height="36" fill="white" transform="translate(12 12.4055)"/>
</clipPath>
</defs>
</svg>
