<svg width="60" height="61" viewBox="0 0 60 61" fill="none" xmlns="http://www.w3.org/2000/svg">
<rect y="0.405518" width="60" height="60" rx="12" fill="#E85626"/>
<path d="M30.7436 32.8006C29.3987 32.7944 28.0626 32.5837 26.7811 32.1757C24.7336 31.4907 23.2128 29.7573 22.7999 27.638C22.3482 25.4623 23.1714 23.1617 25.058 21.3265C25.2604 21.1293 25.4708 20.9405 25.689 20.7599C27.6207 19.1428 30.2249 18.5808 32.6516 19.2574C35.0008 20.0072 36.6241 22.1542 36.7053 24.6189C36.7933 26.0377 36.3309 27.4357 35.4143 28.5222C34.7074 29.4127 33.562 29.8333 32.4467 29.6119C31.9906 29.5173 31.5927 29.2411 31.3445 28.8469C31.1219 28.464 31.0648 28.0069 31.1864 27.581C31.7111 25.5977 32.2445 22.5839 32.2498 22.5533C32.287 22.3422 32.4341 22.167 32.6356 22.0937C32.837 22.0204 33.0623 22.0602 33.2265 22.198C33.3907 22.3358 33.4689 22.5508 33.4317 22.7619C33.4094 22.8873 32.8842 25.856 32.3466 27.8877C32.3082 28.0002 32.3179 28.1237 32.3732 28.2289C32.4562 28.3437 32.5814 28.4209 32.7212 28.4433C33.4039 28.5573 34.0935 28.2834 34.512 27.7321C35.2238 26.8805 35.5805 25.7877 35.508 24.6802C35.4493 22.7183 34.1628 21.0055 32.2949 20.4025C30.2561 19.8417 28.0719 20.3208 26.4549 21.6834C26.2621 21.8434 26.0746 22.0109 25.8948 22.1861C24.9621 23.0933 23.4727 24.9759 23.9745 27.3937C24.3117 29.0829 25.5182 30.4672 27.1454 31.0322C29.9592 31.9298 34.0024 32.0378 36.1327 29.389C36.342 29.1369 36.7149 29.0994 36.9702 29.3047C37.2256 29.5099 37.269 29.8821 37.0678 30.1407C35.4925 32.0997 33.0953 32.8006 30.7436 32.8006Z" fill="white" stroke="white" stroke-width="0.2"/>
<path d="M28.6906 29.6899C28.0564 29.7008 27.4379 29.4928 26.9391 29.101C25.7875 28.1794 25.7558 26.5784 26.0787 25.4881C26.1874 25.125 26.3334 24.7742 26.5143 24.4411C26.9645 23.5328 27.6843 22.7858 28.5752 22.3023C29.6847 21.7266 31.0403 21.9449 31.913 22.8399C32.346 23.3143 32.6721 23.8761 32.8693 24.4874C32.9738 24.7976 32.8104 25.1343 32.5021 25.2441C32.1937 25.3539 31.8543 25.1963 31.7391 24.8899C31.5969 24.4383 31.3605 24.0221 31.0455 23.6686C30.5367 23.1483 29.7439 23.0299 29.1053 23.3789C28.4372 23.7557 27.9002 24.3278 27.5664 25.0185C27.4262 25.2773 27.3129 25.5498 27.2284 25.8317C26.9952 26.6204 27.0465 27.6496 27.6898 28.1648C28.3931 28.7296 29.5797 28.4908 30.2472 27.9149C30.7447 27.467 31.1722 26.947 31.5154 26.3722C31.6265 26.186 31.8294 26.0743 32.0462 26.0799C32.263 26.0856 32.4598 26.2078 32.5611 26.3995C32.6623 26.5913 32.6522 26.8227 32.5347 27.005C32.1282 27.6822 31.6222 28.2945 31.0336 28.8212C30.3776 29.3747 29.5489 29.682 28.6906 29.6899Z" fill="white" stroke="white" stroke-width="0.2"/>
<path d="M46.1996 48.4055H13.8018C12.8082 48.4044 12.003 47.5993 12.002 46.6057V24.4072C12.002 24.1746 12.1365 23.9629 12.3471 23.8641C12.5577 23.7653 12.8065 23.7971 12.9854 23.9459L27.7066 36.1805C29.0386 37.2806 30.964 37.2802 32.2956 36.1797L47.0155 23.9459C47.1944 23.7968 47.4434 23.7648 47.6542 23.8636C47.865 23.9625 47.9996 24.1744 47.9994 24.4072V46.6057C47.9983 47.5993 47.1931 48.4044 46.1996 48.4055ZM13.2019 25.6859V46.6057C13.2023 46.9368 13.4707 47.2052 13.8018 47.2056H46.1996C46.5308 47.2053 46.7992 46.9369 46.7995 46.6057V25.6859L33.0617 37.1031C31.2855 38.571 28.7172 38.5714 26.9405 37.104L13.2019 25.6859Z" fill="white" stroke="white" stroke-width="0.2"/>
<path d="M12.6025 25.007C12.3412 25.0072 12.1098 24.8383 12.0304 24.5893C11.951 24.3404 12.0418 24.0686 12.2551 23.9175L17.6547 20.0898C17.925 19.9024 18.2958 19.9677 18.486 20.2361C18.6761 20.5044 18.6147 20.8759 18.3484 21.0688L12.9487 24.8966C12.8476 24.9685 12.7266 25.0071 12.6025 25.007Z" fill="white" stroke="white" stroke-width="0.2"/>
<path d="M47.3992 25.007C47.2751 25.0071 47.1541 24.9685 47.053 24.8966L41.6534 21.0688C41.387 20.8759 41.3256 20.5044 41.5157 20.2361C41.7059 19.9677 42.0767 19.9024 42.347 20.0898L47.7467 23.9175C47.9599 24.0686 48.0508 24.3404 47.9714 24.5893C47.892 24.8383 47.6605 25.0072 47.3992 25.007Z" fill="white" stroke="white" stroke-width="0.2"/>
<path d="M35.5441 16.6078C35.4199 16.6078 35.2988 16.5692 35.1975 16.4973L32.3297 14.4634C30.9985 13.3385 29.0532 13.3268 27.7085 14.4356L24.8047 16.4974C24.6298 16.6214 24.402 16.6427 24.2072 16.5532C24.0123 16.4638 23.88 16.2772 23.86 16.0637C23.8401 15.8503 23.9355 15.6424 24.1104 15.5184L26.9782 13.4845C28.7502 12.0356 31.301 12.0471 33.0598 13.512L35.8916 15.5181C36.105 15.6692 36.196 15.941 36.1166 16.1901C36.0371 16.4392 35.8055 16.6082 35.5441 16.6078Z" fill="white" stroke="white" stroke-width="0.2"/>
<path d="M12.9911 48.0814C12.7383 48.0817 12.5125 47.9234 12.4264 47.6856C12.3404 47.4478 12.4127 47.1817 12.6072 47.0201L26.2982 35.6449C26.4627 35.505 26.6897 35.4643 26.8926 35.5383C27.0954 35.6124 27.2428 35.7897 27.2786 36.0027C27.3143 36.2157 27.2327 36.4314 27.0651 36.5676L13.3741 47.9428C13.2666 48.0324 13.1311 48.0815 12.9911 48.0814Z" fill="white" stroke="white" stroke-width="0.2"/>
<path d="M47.0082 48.0814C46.8684 48.0815 46.733 48.0324 46.6256 47.9428L32.9346 36.5676C32.767 36.4314 32.6855 36.2157 32.7212 36.0027C32.7569 35.7897 32.9043 35.6124 33.1071 35.5383C33.31 35.4643 33.537 35.505 33.7015 35.6449L47.3922 47.0201C47.5866 47.1817 47.6589 47.4478 47.5729 47.6856C47.4869 47.9234 47.2611 48.0816 47.0082 48.0814Z" fill="white" stroke="white" stroke-width="0.2"/>
<path d="M41.9996 29.4949C41.6683 29.4949 41.3997 29.2263 41.3997 28.8949V16.6125C41.3979 16.6251 41.3739 16.6081 41.3337 16.6078H18.6673C18.6408 16.6062 18.6147 16.6155 18.5953 16.6336L18.6013 28.8949C18.6013 29.2263 18.3327 29.4949 18.0013 29.4949C17.67 29.4949 17.4014 29.2263 17.4014 28.8949V16.6078C17.4207 15.9274 17.9868 15.3908 18.6673 15.4079H41.3337C42.0141 15.3909 42.5802 15.9274 42.5996 16.6078V28.8949C42.5996 29.2263 42.331 29.4949 41.9996 29.4949Z" fill="white" stroke="white" stroke-width="0.2"/>
</svg>
