<svg width="60" height="60" viewBox="0 0 60 60" fill="none" xmlns="http://www.w3.org/2000/svg">
<rect width="60" height="60" rx="12" fill="#C2272C"/>
<path d="M30.0798 12.2813C29.6262 12.278 29.2562 12.643 29.253 13.0958C29.2497 13.5487 29.6139 13.9186 30.0675 13.9219C30.5203 13.9252 30.8903 13.561 30.8936 13.1081C30.8969 12.6553 30.5326 12.2854 30.0798 12.2813Z" fill="white"/>
<path d="M30.0798 12.2813C29.6262 12.278 29.2562 12.643 29.253 13.0958C29.2497 13.5487 29.6139 13.9186 30.0675 13.9219C30.5203 13.9252 30.8903 13.561 30.8936 13.1081C30.8969 12.6553 30.5326 12.2854 30.0798 12.2813Z" stroke="white"/>
<path d="M30.0266 17.2042C26.8592 17.1818 24.2653 19.737 24.2414 22.9033C24.2175 26.0695 26.7741 28.6646 29.9404 28.6885L29.9844 28.6886C33.1305 28.6886 35.7018 26.1411 35.7256 22.9894C35.7495 19.8234 33.193 17.2281 30.0266 17.2042ZM29.9842 27.0481L29.9527 27.0479C27.691 27.0309 25.8649 25.1771 25.8819 22.9156C25.8989 20.6643 27.7354 18.8446 29.9828 18.8446L30.0143 18.8448C32.2759 18.8619 34.1021 20.7156 34.0851 22.9771C34.068 25.2285 32.2316 27.0481 29.9842 27.0481Z" fill="white"/>
<path d="M30.0266 17.2042C26.8592 17.1818 24.2653 19.737 24.2414 22.9033C24.2175 26.0695 26.7741 28.6646 29.9404 28.6885L29.9844 28.6886C33.1305 28.6886 35.7018 26.1411 35.7256 22.9894C35.7495 19.8234 33.193 17.2281 30.0266 17.2042ZM29.9842 27.0481L29.9527 27.0479C27.691 27.0309 25.8649 25.1771 25.8819 22.9156C25.8989 20.6643 27.7354 18.8446 29.9828 18.8446L30.0143 18.8448C32.2759 18.8619 34.1021 20.7156 34.0851 22.9771C34.068 25.2285 32.2316 27.0481 29.9842 27.0481Z" stroke="white"/>
<path d="M33.5859 12.9026C33.1591 12.7512 32.69 12.9747 32.5386 13.4018C32.3872 13.8288 32.6107 14.2976 33.0377 14.4491C36.651 15.7297 39.059 19.171 39.0301 23.0122C39.0267 23.4652 39.3912 23.8353 39.8443 23.8387H39.8506C40.3006 23.8387 40.6673 23.4755 40.6707 23.0245C40.7049 18.4844 37.8576 14.4167 33.5859 12.9026Z" fill="white"/>
<path d="M33.5859 12.9026C33.1591 12.7512 32.69 12.9747 32.5386 13.4018C32.3872 13.8288 32.6107 14.2976 33.0377 14.4491C36.651 15.7297 39.059 19.171 39.0301 23.0122C39.0267 23.4652 39.3912 23.8353 39.8443 23.8387H39.8506C40.3006 23.8387 40.6673 23.4755 40.6707 23.0245C40.7049 18.4844 37.8576 14.4167 33.5859 12.9026Z" stroke="white"/>
<path d="M35.0335 39.8801C35.5815 39.1748 36.1087 38.5034 36.614 37.86C41.1406 32.0964 43.9041 28.5776 43.9455 23.0502C44.0033 15.3193 37.7293 9 29.999 9C22.3589 9 16.1132 15.1875 16.0552 22.841C16.0132 28.4831 18.7846 32.0042 23.298 37.7386C23.8332 38.4185 24.3928 39.1295 24.9752 39.8789C19.5098 40.6956 16.0552 42.7478 16.0552 45.2579C16.0552 46.9393 17.6093 48.4481 20.4315 49.5063C23.0001 50.4695 26.3984 51 30.0003 51C33.6023 51 37.0006 50.4695 39.5692 49.5063C42.3913 48.448 43.9455 46.9392 43.9455 45.2578C43.9455 42.7491 40.494 40.6974 35.0335 39.8801ZM17.6957 22.8534C17.7469 16.0998 23.2574 10.6406 29.9992 10.6406C36.8208 10.6406 42.3558 16.2178 42.305 23.038C42.2678 28.0067 39.6403 31.3519 35.2965 36.8823C34.539 37.8467 33.7293 38.8775 32.8721 39.995C31.8424 41.3367 30.8967 42.6052 30.0016 43.8461C29.1091 42.6045 28.1823 41.3587 27.1371 39.9945C26.2153 38.7922 25.3531 37.6961 24.5541 36.6803C20.1427 31.0718 17.6581 27.913 17.6957 22.8534ZM30.0003 49.3595C22.9579 49.3595 17.6957 47.1941 17.6957 45.2579C17.6957 43.822 20.8414 42.0081 26.1307 41.38C27.2999 42.9141 28.3249 44.3078 29.3303 45.7312C29.4839 45.9486 29.7334 46.078 29.9996 46.0782H30.0003C30.2663 46.0782 30.5157 45.9492 30.6695 45.7323C31.6654 44.3274 32.7185 42.8993 33.8777 41.3809C39.162 42.0097 42.305 43.823 42.305 45.258C42.3049 47.1941 37.0428 49.3595 30.0003 49.3595Z" fill="white"/>
<path d="M35.0335 39.8801C35.5815 39.1748 36.1087 38.5034 36.614 37.86C41.1406 32.0964 43.9041 28.5776 43.9455 23.0502C44.0033 15.3193 37.7293 9 29.999 9C22.3589 9 16.1132 15.1875 16.0552 22.841C16.0132 28.4831 18.7846 32.0042 23.298 37.7386C23.8332 38.4185 24.3928 39.1295 24.9752 39.8789C19.5098 40.6956 16.0552 42.7478 16.0552 45.2579C16.0552 46.9393 17.6093 48.4481 20.4315 49.5063C23.0001 50.4695 26.3984 51 30.0003 51C33.6023 51 37.0006 50.4695 39.5692 49.5063C42.3913 48.448 43.9455 46.9392 43.9455 45.2578C43.9455 42.7491 40.494 40.6974 35.0335 39.8801ZM17.6957 22.8534C17.7469 16.0998 23.2574 10.6406 29.9992 10.6406C36.8208 10.6406 42.3558 16.2178 42.305 23.038C42.2678 28.0067 39.6403 31.3519 35.2965 36.8823C34.539 37.8467 33.7293 38.8775 32.8721 39.995C31.8424 41.3367 30.8967 42.6052 30.0016 43.8461C29.1091 42.6045 28.1823 41.3587 27.1371 39.9945C26.2153 38.7922 25.3531 37.6961 24.5541 36.6803C20.1427 31.0718 17.6581 27.913 17.6957 22.8534ZM30.0003 49.3595C22.9579 49.3595 17.6957 47.1941 17.6957 45.2579C17.6957 43.822 20.8414 42.0081 26.1307 41.38C27.2999 42.9141 28.3249 44.3078 29.3303 45.7312C29.4839 45.9486 29.7334 46.078 29.9996 46.0782H30.0003C30.2663 46.0782 30.5157 45.9492 30.6695 45.7323C31.6654 44.3274 32.7185 42.8993 33.8777 41.3809C39.162 42.0097 42.305 43.823 42.305 45.258C42.3049 47.1941 37.0428 49.3595 30.0003 49.3595Z" stroke="white"/>
</svg>
