<svg width="200" height="60" viewBox="0 0 200 60" fill="none" xmlns="http://www.w3.org/2000/svg">
<rect width="200" height="60" rx="30" fill="#E85626"/>
<path d="M37.96 33.76H30.96L29.58 37H26.9L33.2 23H35.76L42.08 37H39.36L37.96 33.76ZM37.1 31.72L34.46 25.6L31.84 31.72H37.1ZM49.5405 26.2C50.5805 26.2 51.5071 26.4267 52.3205 26.88C53.1471 27.3333 53.7938 27.9733 54.2605 28.8C54.7271 29.6267 54.9605 30.58 54.9605 31.66C54.9605 32.74 54.7271 33.7 54.2605 34.54C53.7938 35.3667 53.1471 36.0067 52.3205 36.46C51.5071 36.9133 50.5805 37.14 49.5405 37.14C48.1005 37.14 46.9605 36.66 46.1205 35.7V40.88H43.6205V26.32H46.0005V27.72C46.4138 27.2133 46.9205 26.8333 47.5205 26.58C48.1338 26.3267 48.8071 26.2 49.5405 26.2ZM49.2605 35C50.1805 35 50.9338 34.6933 51.5205 34.08C52.1205 33.4667 52.4205 32.66 52.4205 31.66C52.4205 30.66 52.1205 29.8533 51.5205 29.24C50.9338 28.6267 50.1805 28.32 49.2605 28.32C48.6605 28.32 48.1205 28.46 47.6405 28.74C47.1605 29.0067 46.7805 29.3933 46.5005 29.9C46.2205 30.4067 46.0805 30.9933 46.0805 31.66C46.0805 32.3267 46.2205 32.9133 46.5005 33.42C46.7805 33.9267 47.1605 34.32 47.6405 34.6C48.1205 34.8667 48.6605 35 49.2605 35ZM63.2514 26.2C64.2914 26.2 65.2181 26.4267 66.0314 26.88C66.8581 27.3333 67.5047 27.9733 67.9714 28.8C68.4381 29.6267 68.6714 30.58 68.6714 31.66C68.6714 32.74 68.4381 33.7 67.9714 34.54C67.5047 35.3667 66.8581 36.0067 66.0314 36.46C65.2181 36.9133 64.2914 37.14 63.2514 37.14C61.8114 37.14 60.6714 36.66 59.8314 35.7V40.88H57.3314V26.32H59.7114V27.72C60.1247 27.2133 60.6314 26.8333 61.2314 26.58C61.8447 26.3267 62.5181 26.2 63.2514 26.2ZM62.9714 35C63.8914 35 64.6447 34.6933 65.2314 34.08C65.8314 33.4667 66.1314 32.66 66.1314 31.66C66.1314 30.66 65.8314 29.8533 65.2314 29.24C64.6447 28.6267 63.8914 28.32 62.9714 28.32C62.3714 28.32 61.8314 28.46 61.3514 28.74C60.8714 29.0067 60.4914 29.3933 60.2114 29.9C59.9314 30.4067 59.7914 30.9933 59.7914 31.66C59.7914 32.3267 59.9314 32.9133 60.2114 33.42C60.4914 33.9267 60.8714 34.32 61.3514 34.6C61.8314 34.8667 62.3714 35 62.9714 35ZM71.0423 22.16H73.5423V37H71.0423V22.16ZM86.8236 26.32L81.8236 37.86C81.3569 39.02 80.7903 39.8333 80.1236 40.3C79.4569 40.78 78.6503 41.02 77.7036 41.02C77.1703 41.02 76.6436 40.9333 76.1236 40.76C75.6036 40.5867 75.1769 40.3467 74.8436 40.04L75.8436 38.2C76.0836 38.4267 76.3636 38.6067 76.6836 38.74C77.0169 38.8733 77.3503 38.94 77.6836 38.94C78.1236 38.94 78.4836 38.8267 78.7636 38.6C79.0569 38.3733 79.3236 37.9933 79.5636 37.46L79.7436 37.04L75.0836 26.32H77.6836L81.0436 34.22L84.4236 26.32H86.8236ZM106.593 23V37H104.453L96.7334 27.52V37H94.1534V23H96.2934L104.013 32.48V23H106.593ZM114.905 37.14C113.825 37.14 112.852 36.9067 111.985 36.44C111.118 35.9733 110.438 35.3267 109.945 34.5C109.465 33.66 109.225 32.7133 109.225 31.66C109.225 30.6067 109.465 29.6667 109.945 28.84C110.438 28.0133 111.118 27.3667 111.985 26.9C112.852 26.4333 113.825 26.2 114.905 26.2C115.998 26.2 116.978 26.4333 117.845 26.9C118.712 27.3667 119.385 28.0133 119.865 28.84C120.358 29.6667 120.605 30.6067 120.605 31.66C120.605 32.7133 120.358 33.66 119.865 34.5C119.385 35.3267 118.712 35.9733 117.845 36.44C116.978 36.9067 115.998 37.14 114.905 37.14ZM114.905 35C115.825 35 116.585 34.6933 117.185 34.08C117.785 33.4667 118.085 32.66 118.085 31.66C118.085 30.66 117.785 29.8533 117.185 29.24C116.585 28.6267 115.825 28.32 114.905 28.32C113.985 28.32 113.225 28.6267 112.625 29.24C112.038 29.8533 111.745 30.66 111.745 31.66C111.745 32.66 112.038 33.4667 112.625 34.08C113.225 34.6933 113.985 35 114.905 35ZM139.363 26.32L135.423 37H133.023L130.263 29.64L127.463 37H125.063L121.143 26.32H123.503L126.323 34.2L129.263 26.32H131.363L134.243 34.24L137.143 26.32H139.363Z" fill="white"/>
<g clip-path="url(#clip0_75_556)">
<path d="M173.725 29.3364C173.725 29.3361 173.725 29.3358 173.724 29.3355L168.826 24.4605C168.459 24.0953 167.865 24.0967 167.5 24.4637C167.134 24.8307 167.136 25.4242 167.503 25.7895L170.792 29.0625H150.938C150.42 29.0625 150 29.4822 150 30C150 30.5178 150.42 30.9375 150.938 30.9375H170.792L167.503 34.2105C167.136 34.5757 167.135 35.1693 167.5 35.5363C167.865 35.9034 168.459 35.9047 168.826 35.5395L173.724 30.6645C173.725 30.6642 173.725 30.6639 173.725 30.6636C174.092 30.2971 174.091 29.7016 173.725 29.3364Z" fill="white"/>
</g>
<defs>
<clipPath id="clip0_75_556">
<rect width="24" height="24" fill="white" transform="translate(150 18)"/>
</clipPath>
</defs>
</svg>
