<svg width="24" height="24" viewBox="0 0 24 24" fill="none" xmlns="http://www.w3.org/2000/svg">
<path fill-rule="evenodd" clip-rule="evenodd" d="M16.6889 4.29766C15.8179 4.01258 14.6316 3.99998 12 3.99998C10.5885 3.99998 9.57994 4.00052 8.78514 4.05475C7.99931 4.10836 7.49574 4.2111 7.08658 4.38058C5.86144 4.88805 4.88807 5.86142 4.3806 7.08656C4.21112 7.49572 4.10839 7.99929 4.05477 8.78511C4.00054 9.57992 4 10.5885 4 12C4 13.4115 4.00054 14.4201 4.05477 15.2149C4.10839 16.0007 4.21112 16.5043 4.3806 16.9134C4.88807 18.1386 5.86144 19.1119 7.08658 19.6194C7.49574 19.7889 7.99931 19.8916 8.78514 19.9452C9.57994 19.9995 10.5885 20 12 20C13.4115 20 14.4201 19.9995 15.2149 19.9452C16.0007 19.8916 16.5043 19.7889 16.9134 19.6194C18.1386 19.1119 19.1119 18.1386 19.6194 16.9134C19.7889 16.5043 19.8916 16.0007 19.9452 15.2149C19.9995 14.4201 20 13.4115 20 12C20 11.2342 20 10.5838 19.9908 10.0161C19.9819 9.46387 20.4224 9.009 20.9746 9.00011C21.5268 8.99121 21.9817 9.43166 21.9906 9.98387C22 10.5694 22 11.2353 22 11.9936V12.0368C22 13.4035 22 14.4801 21.9406 15.351C21.88 16.2387 21.7544 16.9853 21.4672 17.6788C20.7567 19.394 19.394 20.7567 17.6788 21.4672C16.9853 21.7544 16.2387 21.88 15.351 21.9406C14.4801 22 13.4035 22 12.0369 22H11.9631C10.5965 22 9.51986 22 8.649 21.9406C7.76134 21.88 7.01469 21.7544 6.32122 21.4672C4.60602 20.7567 3.2433 19.394 2.53284 17.6788C2.2456 16.9853 2.11997 16.2387 2.05941 15.351C1.99999 14.4801 2 13.4035 2 12.0368V11.9632C2 10.5965 1.99999 9.51983 2.05941 8.64897C2.11997 7.76132 2.2456 7.01466 2.53284 6.32119C3.2433 4.606 4.60602 3.24328 6.32122 2.53282C7.01469 2.24557 7.76134 2.11995 8.64899 2.05939C9.51986 1.99997 10.5965 1.99997 11.9632 1.99998H12C12.0724 1.99998 12.1441 1.99997 12.215 1.99996C14.5646 1.9996 16.0965 1.99937 17.3111 2.39689C17.8359 2.56868 18.1222 3.13345 17.9504 3.65834C17.7786 4.18322 17.2138 4.46946 16.6889 4.29766ZM21.8637 4.996C22.142 5.47306 21.9809 6.08537 21.5038 6.36365L21.2822 6.49295C17.6873 8.58996 14.799 11.7109 12.9862 15.4571C12.8452 15.7484 12.572 15.9535 12.2529 16.0075C11.9338 16.0615 11.6083 15.9578 11.3793 15.729L7.36584 11.7198C6.97511 11.3295 6.97477 10.6964 7.36509 10.3056C7.7554 9.91487 8.38857 9.91453 8.7793 10.3049L11.8298 13.3522C13.8253 9.7961 16.7377 6.82845 20.2744 4.76539L20.4961 4.6361C20.9731 4.35782 21.5854 4.51895 21.8637 4.996Z" fill="#E85626"/>
</svg>
