<svg width="298" height="60" viewBox="0 0 298 60" fill="none" xmlns="http://www.w3.org/2000/svg">
<rect x="0.5" y="0.5" width="297" height="59" rx="29.5" stroke="white"/>
<path d="M28.9389 28.82H35.8989V30.96H28.9389V28.82ZM29.1389 34.82H37.0389V37H26.5389V23H36.7589V25.18H29.1389V34.82ZM38.0615 37L42.7615 30.88L42.7215 32.22L38.2415 26.32H41.0215L44.1615 30.52H43.1015L46.2615 26.32H48.9615L44.4415 32.22L44.4615 30.88L49.1415 37H46.3215L43.0215 32.54L44.0615 32.68L40.8215 37H38.0615ZM56.9064 37.14C56.0397 37.14 55.2464 36.94 54.5264 36.54C53.8197 36.14 53.253 35.54 52.8264 34.74C52.413 33.9267 52.2064 32.9 52.2064 31.66C52.2064 30.4067 52.4064 29.38 52.8064 28.58C53.2197 27.78 53.7797 27.1867 54.4864 26.8C55.193 26.4 55.9997 26.2 56.9064 26.2C57.9597 26.2 58.8864 26.4267 59.6864 26.88C60.4997 27.3333 61.1397 27.9667 61.6064 28.78C62.0864 29.5933 62.3264 30.5533 62.3264 31.66C62.3264 32.7667 62.0864 33.7333 61.6064 34.56C61.1397 35.3733 60.4997 36.0067 59.6864 36.46C58.8864 36.9133 57.9597 37.14 56.9064 37.14ZM50.9864 40.88V26.32H53.3664V28.84L53.2864 31.68L53.4864 34.52V40.88H50.9864ZM56.6264 35C57.2264 35 57.7597 34.8667 58.2264 34.6C58.7064 34.3333 59.0864 33.9467 59.3664 33.44C59.6464 32.9333 59.7864 32.34 59.7864 31.66C59.7864 30.9667 59.6464 30.3733 59.3664 29.88C59.0864 29.3733 58.7064 28.9867 58.2264 28.72C57.7597 28.4533 57.2264 28.32 56.6264 28.32C56.0264 28.32 55.4864 28.4533 55.0064 28.72C54.5264 28.9867 54.1464 29.3733 53.8664 29.88C53.5864 30.3733 53.4464 30.9667 53.4464 31.66C53.4464 32.34 53.5864 32.9333 53.8664 33.44C54.1464 33.9467 54.5264 34.3333 55.0064 34.6C55.4864 34.8667 56.0264 35 56.6264 35ZM64.6973 37V22.16H67.1973V37H64.6973ZM75.2785 37.14C74.1852 37.14 73.2119 36.9067 72.3585 36.44C71.5052 35.96 70.8319 35.3067 70.3385 34.48C69.8452 33.6533 69.5985 32.7133 69.5985 31.66C69.5985 30.5933 69.8452 29.6533 70.3385 28.84C70.8319 28.0133 71.5052 27.3667 72.3585 26.9C73.2119 26.4333 74.1852 26.2 75.2785 26.2C76.3852 26.2 77.3652 26.4333 78.2185 26.9C79.0852 27.3667 79.7585 28.0067 80.2385 28.82C80.7319 29.6333 80.9785 30.58 80.9785 31.66C80.9785 32.7133 80.7319 33.6533 80.2385 34.48C79.7585 35.3067 79.0852 35.96 78.2185 36.44C77.3652 36.9067 76.3852 37.14 75.2785 37.14ZM75.2785 35C75.8919 35 76.4385 34.8667 76.9185 34.6C77.3985 34.3333 77.7719 33.9467 78.0385 33.44C78.3185 32.9333 78.4585 32.34 78.4585 31.66C78.4585 30.9667 78.3185 30.3733 78.0385 29.88C77.7719 29.3733 77.3985 28.9867 76.9185 28.72C76.4385 28.4533 75.8985 28.32 75.2985 28.32C74.6852 28.32 74.1385 28.4533 73.6585 28.72C73.1919 28.9867 72.8185 29.3733 72.5385 29.88C72.2585 30.3733 72.1185 30.9667 72.1185 31.66C72.1185 32.34 72.2585 32.9333 72.5385 33.44C72.8185 33.9467 73.1919 34.3333 73.6585 34.6C74.1385 34.8667 74.6785 35 75.2785 35ZM83.3692 37V26.32H85.7492V29.26L85.4692 28.4C85.7892 27.68 86.2892 27.1333 86.9692 26.76C87.6625 26.3867 88.5225 26.2 89.5492 26.2V28.58C89.4425 28.5533 89.3425 28.54 89.2492 28.54C89.1558 28.5267 89.0625 28.52 88.9692 28.52C88.0225 28.52 87.2692 28.8 86.7092 29.36C86.1492 29.9067 85.8692 30.7267 85.8692 31.82V37H83.3692ZM96.5923 37.14C95.4056 37.14 94.3656 36.9067 93.4723 36.44C92.5923 35.96 91.9056 35.3067 91.4123 34.48C90.9323 33.6533 90.6923 32.7133 90.6923 31.66C90.6923 30.5933 90.9256 29.6533 91.3923 28.84C91.8723 28.0133 92.5256 27.3667 93.3523 26.9C94.1923 26.4333 95.1456 26.2 96.2123 26.2C97.2523 26.2 98.179 26.4267 98.9923 26.88C99.8056 27.3333 100.446 27.9733 100.912 28.8C101.379 29.6267 101.612 30.6 101.612 31.72C101.612 31.8267 101.606 31.9467 101.592 32.08C101.592 32.2133 101.586 32.34 101.572 32.46H92.6723V30.8H100.252L99.2723 31.32C99.2856 30.7067 99.159 30.1667 98.8923 29.7C98.6256 29.2333 98.259 28.8667 97.7923 28.6C97.339 28.3333 96.8123 28.2 96.2123 28.2C95.599 28.2 95.059 28.3333 94.5923 28.6C94.139 28.8667 93.779 29.24 93.5123 29.72C93.259 30.1867 93.1323 30.74 93.1323 31.38V31.78C93.1323 32.42 93.279 32.9867 93.5723 33.48C93.8656 33.9733 94.279 34.3533 94.8123 34.62C95.3456 34.8867 95.959 35.02 96.6523 35.02C97.2523 35.02 97.7923 34.9267 98.2723 34.74C98.7523 34.5533 99.179 34.26 99.5523 33.86L100.892 35.4C100.412 35.96 99.8056 36.3933 99.0723 36.7C98.3523 36.9933 97.5256 37.14 96.5923 37.14ZM109.781 37V23H115.541C116.781 23 117.841 23.2 118.721 23.6C119.614 24 120.301 24.5733 120.781 25.32C121.261 26.0667 121.501 26.9533 121.501 27.98C121.501 29.0067 121.261 29.8933 120.781 30.64C120.301 31.3867 119.614 31.96 118.721 32.36C117.841 32.76 116.781 32.96 115.541 32.96H111.221L112.381 31.74V37H109.781ZM112.381 32.02L111.221 30.76H115.421C116.568 30.76 117.428 30.52 118.001 30.04C118.588 29.5467 118.881 28.86 118.881 27.98C118.881 27.0867 118.588 26.4 118.001 25.92C117.428 25.44 116.568 25.2 115.421 25.2H111.221L112.381 23.92V32.02ZM123.76 37V26.32H126.14V29.26L125.86 28.4C126.18 27.68 126.68 27.1333 127.36 26.76C128.053 26.3867 128.913 26.2 129.94 26.2V28.58C129.833 28.5533 129.733 28.54 129.64 28.54C129.546 28.5267 129.453 28.52 129.36 28.52C128.413 28.52 127.66 28.8 127.1 29.36C126.54 29.9067 126.26 30.7267 126.26 31.82V37H123.76ZM136.763 37.14C135.67 37.14 134.696 36.9067 133.843 36.44C132.99 35.96 132.316 35.3067 131.823 34.48C131.33 33.6533 131.083 32.7133 131.083 31.66C131.083 30.5933 131.33 29.6533 131.823 28.84C132.316 28.0133 132.99 27.3667 133.843 26.9C134.696 26.4333 135.67 26.2 136.763 26.2C137.87 26.2 138.85 26.4333 139.703 26.9C140.57 27.3667 141.243 28.0067 141.723 28.82C142.216 29.6333 142.463 30.58 142.463 31.66C142.463 32.7133 142.216 33.6533 141.723 34.48C141.243 35.3067 140.57 35.96 139.703 36.44C138.85 36.9067 137.87 37.14 136.763 37.14ZM136.763 35C137.376 35 137.923 34.8667 138.403 34.6C138.883 34.3333 139.256 33.9467 139.523 33.44C139.803 32.9333 139.943 32.34 139.943 31.66C139.943 30.9667 139.803 30.3733 139.523 29.88C139.256 29.3733 138.883 28.9867 138.403 28.72C137.923 28.4533 137.383 28.32 136.783 28.32C136.17 28.32 135.623 28.4533 135.143 28.72C134.676 28.9867 134.303 29.3733 134.023 29.88C133.743 30.3733 133.603 30.9667 133.603 31.66C133.603 32.34 133.743 32.9333 134.023 33.44C134.303 33.9467 134.676 34.3333 135.143 34.6C135.623 34.8667 136.163 35 136.763 35ZM149.694 41.02C148.707 41.02 147.74 40.8867 146.794 40.62C145.86 40.3667 145.094 39.9933 144.494 39.5L145.614 37.62C146.08 38.0067 146.667 38.3133 147.374 38.54C148.094 38.78 148.82 38.9 149.554 38.9C150.727 38.9 151.587 38.6267 152.134 38.08C152.68 37.5467 152.954 36.74 152.954 35.66V33.76L153.154 31.34L153.074 28.92V26.32H155.454V35.38C155.454 37.3133 154.96 38.7333 153.974 39.64C152.987 40.56 151.56 41.02 149.694 41.02ZM149.374 36.52C148.36 36.52 147.44 36.3067 146.614 35.88C145.8 35.44 145.154 34.8333 144.674 34.06C144.207 33.2867 143.974 32.38 143.974 31.34C143.974 30.3133 144.207 29.4133 144.674 28.64C145.154 27.8667 145.8 27.2667 146.614 26.84C147.44 26.4133 148.36 26.2 149.374 26.2C150.28 26.2 151.094 26.38 151.814 26.74C152.534 27.1 153.107 27.66 153.534 28.42C153.974 29.18 154.194 30.1533 154.194 31.34C154.194 32.5267 153.974 33.5067 153.534 34.28C153.107 35.04 152.534 35.6067 151.814 35.98C151.094 36.34 150.28 36.52 149.374 36.52ZM149.754 34.4C150.38 34.4 150.94 34.2733 151.434 34.02C151.927 33.7533 152.307 33.3933 152.574 32.94C152.854 32.4733 152.994 31.94 152.994 31.34C152.994 30.74 152.854 30.2133 152.574 29.76C152.307 29.2933 151.927 28.94 151.434 28.7C150.94 28.4467 150.38 28.32 149.754 28.32C149.127 28.32 148.56 28.4467 148.054 28.7C147.56 28.94 147.174 29.2933 146.894 29.76C146.627 30.2133 146.494 30.74 146.494 31.34C146.494 31.94 146.627 32.4733 146.894 32.94C147.174 33.3933 147.56 33.7533 148.054 34.02C148.56 34.2733 149.127 34.4 149.754 34.4ZM158.74 37V26.32H161.12V29.26L160.84 28.4C161.16 27.68 161.66 27.1333 162.34 26.76C163.034 26.3867 163.894 26.2 164.92 26.2V28.58C164.814 28.5533 164.714 28.54 164.62 28.54C164.527 28.5267 164.434 28.52 164.34 28.52C163.394 28.52 162.64 28.8 162.08 29.36C161.52 29.9067 161.24 30.7267 161.24 31.82V37H158.74ZM172.859 37V34.84L172.719 34.38V30.6C172.719 29.8667 172.499 29.3 172.059 28.9C171.619 28.4867 170.953 28.28 170.059 28.28C169.459 28.28 168.866 28.3733 168.279 28.56C167.706 28.7467 167.219 29.0067 166.819 29.34L165.839 27.52C166.413 27.08 167.093 26.7533 167.879 26.54C168.679 26.3133 169.506 26.2 170.359 26.2C171.906 26.2 173.099 26.5733 173.939 27.32C174.793 28.0533 175.219 29.1933 175.219 30.74V37H172.859ZM169.499 37.14C168.699 37.14 167.999 37.0067 167.399 36.74C166.799 36.46 166.333 36.08 165.999 35.6C165.679 35.1067 165.519 34.5533 165.519 33.94C165.519 33.34 165.659 32.8 165.939 32.32C166.233 31.84 166.706 31.46 167.359 31.18C168.013 30.9 168.879 30.76 169.959 30.76H173.059V32.42H170.139C169.286 32.42 168.713 32.56 168.419 32.84C168.126 33.1067 167.979 33.44 167.979 33.84C167.979 34.2933 168.159 34.6533 168.519 34.92C168.879 35.1867 169.379 35.32 170.019 35.32C170.633 35.32 171.179 35.18 171.659 34.9C172.153 34.62 172.506 34.2067 172.719 33.66L173.139 35.16C172.899 35.7867 172.466 36.2733 171.839 36.62C171.226 36.9667 170.446 37.14 169.499 37.14ZM191.908 26.2C192.761 26.2 193.514 26.3667 194.168 26.7C194.834 27.0333 195.354 27.5467 195.728 28.24C196.101 28.92 196.288 29.8 196.288 30.88V37H193.788V31.2C193.788 30.2533 193.581 29.5467 193.168 29.08C192.754 28.6133 192.161 28.38 191.388 28.38C190.841 28.38 190.354 28.5 189.928 28.74C189.514 28.98 189.188 29.3333 188.948 29.8C188.721 30.2667 188.608 30.86 188.608 31.58V37H186.108V31.2C186.108 30.2533 185.901 29.5467 185.488 29.08C185.074 28.6133 184.481 28.38 183.708 28.38C183.161 28.38 182.674 28.5 182.248 28.74C181.834 28.98 181.508 29.3333 181.268 29.8C181.041 30.2667 180.928 30.86 180.928 31.58V37H178.428V26.32H180.808V29.16L180.388 28.32C180.748 27.6267 181.268 27.1 181.948 26.74C182.641 26.38 183.428 26.2 184.308 26.2C185.308 26.2 186.174 26.4467 186.908 26.94C187.654 27.4333 188.148 28.18 188.388 29.18L187.408 28.84C187.754 28.04 188.328 27.4 189.128 26.92C189.928 26.44 190.854 26.2 191.908 26.2ZM212.962 26.2C213.816 26.2 214.569 26.3667 215.222 26.7C215.889 27.0333 216.409 27.5467 216.782 28.24C217.156 28.92 217.342 29.8 217.342 30.88V37H214.842V31.2C214.842 30.2533 214.636 29.5467 214.222 29.08C213.809 28.6133 213.216 28.38 212.442 28.38C211.896 28.38 211.409 28.5 210.982 28.74C210.569 28.98 210.242 29.3333 210.002 29.8C209.776 30.2667 209.662 30.86 209.662 31.58V37H207.162V31.2C207.162 30.2533 206.956 29.5467 206.542 29.08C206.129 28.6133 205.536 28.38 204.762 28.38C204.216 28.38 203.729 28.5 203.302 28.74C202.889 28.98 202.562 29.3333 202.322 29.8C202.096 30.2667 201.982 30.86 201.982 31.58V37H199.482V26.32H201.862V29.16L201.442 28.32C201.802 27.6267 202.322 27.1 203.002 26.74C203.696 26.38 204.482 26.2 205.362 26.2C206.362 26.2 207.229 26.4467 207.962 26.94C208.709 27.4333 209.202 28.18 209.442 29.18L208.462 28.84C208.809 28.04 209.382 27.4 210.182 26.92C210.982 26.44 211.909 26.2 212.962 26.2ZM225.577 37.14C224.39 37.14 223.35 36.9067 222.457 36.44C221.577 35.96 220.89 35.3067 220.397 34.48C219.917 33.6533 219.677 32.7133 219.677 31.66C219.677 30.5933 219.91 29.6533 220.377 28.84C220.857 28.0133 221.51 27.3667 222.337 26.9C223.177 26.4333 224.13 26.2 225.197 26.2C226.237 26.2 227.163 26.4267 227.977 26.88C228.79 27.3333 229.43 27.9733 229.897 28.8C230.363 29.6267 230.597 30.6 230.597 31.72C230.597 31.8267 230.59 31.9467 230.577 32.08C230.577 32.2133 230.57 32.34 230.557 32.46H221.657V30.8H229.237L228.257 31.32C228.27 30.7067 228.143 30.1667 227.877 29.7C227.61 29.2333 227.243 28.8667 226.777 28.6C226.323 28.3333 225.797 28.2 225.197 28.2C224.583 28.2 224.043 28.3333 223.577 28.6C223.123 28.8667 222.763 29.24 222.497 29.72C222.243 30.1867 222.117 30.74 222.117 31.38V31.78C222.117 32.42 222.263 32.9867 222.557 33.48C222.85 33.9733 223.263 34.3533 223.797 34.62C224.33 34.8867 224.943 35.02 225.637 35.02C226.237 35.02 226.777 34.9267 227.257 34.74C227.737 34.5533 228.163 34.26 228.537 33.86L229.877 35.4C229.397 35.96 228.79 36.3933 228.057 36.7C227.337 36.9933 226.51 37.14 225.577 37.14ZM236.298 37.14C235.405 37.14 234.545 37.0267 233.718 36.8C232.905 36.56 232.258 36.2733 231.778 35.94L232.738 34.04C233.218 34.3467 233.791 34.6 234.458 34.8C235.125 35 235.791 35.1 236.458 35.1C237.245 35.1 237.811 34.9933 238.158 34.78C238.518 34.5667 238.698 34.28 238.698 33.92C238.698 33.6267 238.578 33.4067 238.338 33.26C238.098 33.1 237.785 32.98 237.398 32.9C237.011 32.82 236.578 32.7467 236.098 32.68C235.631 32.6133 235.158 32.5267 234.678 32.42C234.211 32.3 233.785 32.1333 233.398 31.92C233.011 31.6933 232.698 31.3933 232.458 31.02C232.218 30.6467 232.098 30.1533 232.098 29.54C232.098 28.86 232.291 28.2733 232.678 27.78C233.065 27.2733 233.605 26.8867 234.298 26.62C235.005 26.34 235.838 26.2 236.798 26.2C237.518 26.2 238.245 26.28 238.978 26.44C239.711 26.6 240.318 26.8267 240.798 27.12L239.838 29.02C239.331 28.7133 238.818 28.5067 238.298 28.4C237.791 28.28 237.285 28.22 236.778 28.22C236.018 28.22 235.451 28.3333 235.078 28.56C234.718 28.7867 234.538 29.0733 234.538 29.42C234.538 29.74 234.658 29.98 234.898 30.14C235.138 30.3 235.451 30.4267 235.838 30.52C236.225 30.6133 236.651 30.6933 237.118 30.76C237.598 30.8133 238.071 30.9 238.538 31.02C239.005 31.14 239.431 31.3067 239.818 31.52C240.218 31.72 240.538 32.0067 240.778 32.38C241.018 32.7533 241.138 33.24 241.138 33.84C241.138 34.5067 240.938 35.0867 240.538 35.58C240.151 36.0733 239.598 36.46 238.878 36.74C238.158 37.0067 237.298 37.14 236.298 37.14Z" fill="white"/>
<g clip-path="url(#clip0_81_2250)">
<path d="M274.957 29.3093C274.957 29.3091 274.956 29.3087 274.956 29.3084L269.857 24.2336C269.475 23.8535 268.857 23.8549 268.477 24.237C268.096 24.619 268.098 25.2369 268.48 25.6171L271.904 29.0242H251.236C250.697 29.0242 250.26 29.4611 250.26 30.0001C250.26 30.5391 250.697 30.9761 251.236 30.9761H271.904L268.48 34.3832C268.098 34.7634 268.096 35.3813 268.477 35.7633C268.857 36.1454 269.475 36.1468 269.857 35.7666L274.956 30.6919C274.956 30.6916 274.957 30.6912 274.957 30.691C275.339 30.3095 275.338 29.6896 274.957 29.3093Z" fill="white"/>
</g>
<defs>
<clipPath id="clip0_81_2250">
<rect width="24.9835" height="24.9835" fill="white" transform="translate(250.26 17.5083)"/>
</clipPath>
</defs>
</svg>
