<svg width="214" height="60" viewBox="0 0 214 60" fill="none" xmlns="http://www.w3.org/2000/svg">
<rect width="214" height="60" rx="30" fill="#C2272C"/>
<path d="M32.88 23H35.48V34.8H42.8V37H32.88V23ZM54.555 31.72C54.555 31.8933 54.5417 32.14 54.515 32.46H46.135C46.2817 33.2467 46.6617 33.8733 47.275 34.34C47.9017 34.7933 48.675 35.02 49.595 35.02C50.7683 35.02 51.735 34.6333 52.495 33.86L53.835 35.4C53.355 35.9733 52.7483 36.4067 52.015 36.7C51.2817 36.9933 50.455 37.14 49.535 37.14C48.3617 37.14 47.3283 36.9067 46.435 36.44C45.5417 35.9733 44.8483 35.3267 44.355 34.5C43.875 33.66 43.635 32.7133 43.635 31.66C43.635 30.62 43.8683 29.6867 44.335 28.86C44.815 28.02 45.475 27.3667 46.315 26.9C47.155 26.4333 48.1017 26.2 49.155 26.2C50.195 26.2 51.1217 26.4333 51.935 26.9C52.7617 27.3533 53.4017 28 53.855 28.84C54.3217 29.6667 54.555 30.6267 54.555 31.72ZM49.155 28.2C48.355 28.2 47.675 28.44 47.115 28.92C46.5683 29.3867 46.235 30.0133 46.115 30.8H52.175C52.0683 30.0267 51.7417 29.4 51.195 28.92C50.6483 28.44 49.9683 28.2 49.155 28.2ZM60.7434 26.2C62.3168 26.2 63.5168 26.58 64.3434 27.34C65.1834 28.0867 65.6034 29.22 65.6034 30.74V37H63.2434V35.7C62.9368 36.1667 62.4968 36.5267 61.9234 36.78C61.3634 37.02 60.6834 37.14 59.8834 37.14C59.0834 37.14 58.3834 37.0067 57.7834 36.74C57.1834 36.46 56.7168 36.08 56.3834 35.6C56.0634 35.1067 55.9034 34.5533 55.9034 33.94C55.9034 32.98 56.2568 32.2133 56.9634 31.64C57.6834 31.0533 58.8101 30.76 60.3434 30.76H63.1034V30.6C63.1034 29.8533 62.8768 29.28 62.4234 28.88C61.9834 28.48 61.3234 28.28 60.4434 28.28C59.8434 28.28 59.2501 28.3733 58.6634 28.56C58.0901 28.7467 57.6034 29.0067 57.2034 29.34L56.2234 27.52C56.7834 27.0933 57.4568 26.7667 58.2434 26.54C59.0301 26.3133 59.8634 26.2 60.7434 26.2ZM60.4034 35.32C61.0301 35.32 61.5834 35.18 62.0634 34.9C62.5568 34.6067 62.9034 34.1933 63.1034 33.66V32.42H60.5234C59.0834 32.42 58.3634 32.8933 58.3634 33.84C58.3634 34.2933 58.5434 34.6533 58.9034 34.92C59.2634 35.1867 59.7634 35.32 60.4034 35.32ZM71.1919 27.88C71.9119 26.76 73.1785 26.2 74.9919 26.2V28.58C74.7785 28.54 74.5852 28.52 74.4119 28.52C73.4385 28.52 72.6785 28.8067 72.1319 29.38C71.5852 29.94 71.3119 30.7533 71.3119 31.82V37H68.8119V26.32H71.1919V27.88ZM83.1727 26.2C84.5193 26.2 85.5993 26.5933 86.4127 27.38C87.226 28.1667 87.6327 29.3333 87.6327 30.88V37H85.1327V31.2C85.1327 30.2667 84.9127 29.5667 84.4727 29.1C84.0327 28.62 83.406 28.38 82.5927 28.38C81.6727 28.38 80.946 28.66 80.4127 29.22C79.8793 29.7667 79.6127 30.56 79.6127 31.6V37H77.1127V26.32H79.4927V27.7C79.906 27.2067 80.426 26.8333 81.0527 26.58C81.6793 26.3267 82.386 26.2 83.1727 26.2ZM109.811 26.2C111.158 26.2 112.225 26.5933 113.011 27.38C113.798 28.1533 114.191 29.32 114.191 30.88V37H111.691V31.2C111.691 30.2667 111.485 29.5667 111.071 29.1C110.658 28.62 110.065 28.38 109.291 28.38C108.451 28.38 107.778 28.66 107.271 29.22C106.765 29.7667 106.511 30.5533 106.511 31.58V37H104.011V31.2C104.011 30.2667 103.805 29.5667 103.391 29.1C102.978 28.62 102.385 28.38 101.611 28.38C100.758 28.38 100.078 28.6533 99.5714 29.2C99.0781 29.7467 98.8314 30.54 98.8314 31.58V37H96.3314V26.32H98.7114V27.68C99.1114 27.2 99.6114 26.8333 100.211 26.58C100.811 26.3267 101.478 26.2 102.211 26.2C103.011 26.2 103.718 26.3533 104.331 26.66C104.958 26.9533 105.451 27.3933 105.811 27.98C106.251 27.42 106.818 26.9867 107.511 26.68C108.205 26.36 108.971 26.2 109.811 26.2ZM122.284 37.14C121.204 37.14 120.23 36.9067 119.364 36.44C118.497 35.9733 117.817 35.3267 117.324 34.5C116.844 33.66 116.604 32.7133 116.604 31.66C116.604 30.6067 116.844 29.6667 117.324 28.84C117.817 28.0133 118.497 27.3667 119.364 26.9C120.23 26.4333 121.204 26.2 122.284 26.2C123.377 26.2 124.357 26.4333 125.224 26.9C126.09 27.3667 126.764 28.0133 127.244 28.84C127.737 29.6667 127.984 30.6067 127.984 31.66C127.984 32.7133 127.737 33.66 127.244 34.5C126.764 35.3267 126.09 35.9733 125.224 36.44C124.357 36.9067 123.377 37.14 122.284 37.14ZM122.284 35C123.204 35 123.964 34.6933 124.564 34.08C125.164 33.4667 125.464 32.66 125.464 31.66C125.464 30.66 125.164 29.8533 124.564 29.24C123.964 28.6267 123.204 28.32 122.284 28.32C121.364 28.32 120.604 28.6267 120.004 29.24C119.417 29.8533 119.124 30.66 119.124 31.66C119.124 32.66 119.417 33.4667 120.004 34.08C120.604 34.6933 121.364 35 122.284 35ZM132.754 27.88C133.474 26.76 134.741 26.2 136.554 26.2V28.58C136.341 28.54 136.148 28.52 135.974 28.52C135.001 28.52 134.241 28.8067 133.694 29.38C133.148 29.94 132.874 30.7533 132.874 31.82V37H130.374V26.32H132.754V27.88ZM148.618 31.72C148.618 31.8933 148.604 32.14 148.578 32.46H140.198C140.344 33.2467 140.724 33.8733 141.338 34.34C141.964 34.7933 142.738 35.02 143.658 35.02C144.831 35.02 145.798 34.6333 146.558 33.86L147.898 35.4C147.418 35.9733 146.811 36.4067 146.078 36.7C145.344 36.9933 144.518 37.14 143.598 37.14C142.424 37.14 141.391 36.9067 140.498 36.44C139.604 35.9733 138.911 35.3267 138.418 34.5C137.938 33.66 137.698 32.7133 137.698 31.66C137.698 30.62 137.931 29.6867 138.398 28.86C138.878 28.02 139.538 27.3667 140.378 26.9C141.218 26.4333 142.164 26.2 143.218 26.2C144.258 26.2 145.184 26.4333 145.998 26.9C146.824 27.3533 147.464 28 147.918 28.84C148.384 29.6667 148.618 30.6267 148.618 31.72ZM143.218 28.2C142.418 28.2 141.738 28.44 141.178 28.92C140.631 29.3867 140.298 30.0133 140.178 30.8H146.238C146.131 30.0267 145.804 29.4 145.258 28.92C144.711 28.44 144.031 28.2 143.218 28.2Z" fill="white"/>
<g clip-path="url(#clip0_81_2318)">
<path d="M181.725 29.3364C181.725 29.3361 181.725 29.3358 181.724 29.3355L176.826 24.4605C176.459 24.0953 175.865 24.0967 175.5 24.4637C175.134 24.8307 175.136 25.4242 175.503 25.7895L178.792 29.0625H158.938C158.42 29.0625 158 29.4822 158 30C158 30.5178 158.42 30.9375 158.938 30.9375H178.792L175.503 34.2105C175.136 34.5757 175.135 35.1693 175.5 35.5363C175.865 35.9034 176.459 35.9047 176.826 35.5395L181.724 30.6645C181.725 30.6642 181.725 30.6639 181.725 30.6636C182.092 30.2971 182.091 29.7016 181.725 29.3364Z" fill="white"/>
</g>
<defs>
<clipPath id="clip0_81_2318">
<rect width="24" height="24" fill="white" transform="translate(158 18)"/>
</clipPath>
</defs>
</svg>
