<svg width="335" height="60" viewBox="0 0 335 60" fill="none" xmlns="http://www.w3.org/2000/svg">
<rect width="335" height="60" rx="30" fill="#C2272C"/>
<path d="M43.02 37L36.9 23H39.72L45.18 35.66H43.56L49.08 23H51.68L45.58 37H43.02ZM53.015 37V26.32H55.515V37H53.015ZM54.275 24.56C53.8083 24.56 53.4217 24.4133 53.115 24.12C52.8217 23.8267 52.675 23.4733 52.675 23.06C52.675 22.6333 52.8217 22.28 53.115 22C53.4217 21.7067 53.8083 21.56 54.275 21.56C54.7417 21.56 55.1217 21.7 55.415 21.98C55.7217 22.2467 55.875 22.5867 55.875 23C55.875 23.44 55.7283 23.8133 55.435 24.12C55.1417 24.4133 54.755 24.56 54.275 24.56ZM63.8163 37.14C62.6296 37.14 61.5896 36.9067 60.6963 36.44C59.8163 35.96 59.1296 35.3067 58.6363 34.48C58.1563 33.6533 57.9163 32.7133 57.9163 31.66C57.9163 30.5933 58.1496 29.6533 58.6163 28.84C59.0963 28.0133 59.7496 27.3667 60.5763 26.9C61.4163 26.4333 62.3696 26.2 63.4363 26.2C64.4763 26.2 65.4029 26.4267 66.2163 26.88C67.0296 27.3333 67.6696 27.9733 68.1363 28.8C68.6029 29.6267 68.8363 30.6 68.8363 31.72C68.8363 31.8267 68.8296 31.9467 68.8163 32.08C68.8163 32.2133 68.8096 32.34 68.7963 32.46H59.8963V30.8H67.4763L66.4963 31.32C66.5096 30.7067 66.3829 30.1667 66.1163 29.7C65.8496 29.2333 65.4829 28.8667 65.0163 28.6C64.5629 28.3333 64.0363 28.2 63.4363 28.2C62.8229 28.2 62.2829 28.3333 61.8163 28.6C61.3629 28.8667 61.0029 29.24 60.7363 29.72C60.4829 30.1867 60.3563 30.74 60.3563 31.38V31.78C60.3563 32.42 60.5029 32.9867 60.7963 33.48C61.0896 33.9733 61.5029 34.3533 62.0363 34.62C62.5696 34.8867 63.1829 35.02 63.8763 35.02C64.4763 35.02 65.0163 34.9267 65.4963 34.74C65.9763 34.5533 66.4029 34.26 66.7763 33.86L68.1163 35.4C67.6363 35.96 67.0296 36.3933 66.2963 36.7C65.5763 36.9933 64.7496 37.14 63.8163 37.14ZM73.4023 37L69.4823 26.32H71.8423L75.2023 35.74H74.0823L77.6023 26.32H79.7023L83.1223 35.74H82.0223L85.4823 26.32H87.7023L83.7623 37H81.3623L78.2423 28.66H78.9823L75.8023 37H73.4023ZM93.2086 37L99.5086 23H102.069L108.389 37H105.669L100.249 24.38H101.289L95.8886 37H93.2086ZM96.1086 33.76L96.8086 31.72H104.369L105.069 33.76H96.1086ZM109.929 37V22.16H112.429V37H109.929ZM115.71 37V22.16H118.21V37H115.71ZM127.259 37V23H133.019C134.259 23 135.319 23.2 136.199 23.6C137.092 24 137.779 24.5733 138.259 25.32C138.739 26.0667 138.979 26.9533 138.979 27.98C138.979 29.0067 138.739 29.8933 138.259 30.64C137.779 31.3867 137.092 31.96 136.199 32.36C135.319 32.76 134.259 32.96 133.019 32.96H128.699L129.859 31.74V37H127.259ZM129.859 32.02L128.699 30.76H132.899C134.046 30.76 134.906 30.52 135.479 30.04C136.066 29.5467 136.359 28.86 136.359 27.98C136.359 27.0867 136.066 26.4 135.479 25.92C134.906 25.44 134.046 25.2 132.899 25.2H128.699L129.859 23.92V32.02ZM141.238 37V26.32H143.618V29.26L143.338 28.4C143.658 27.68 144.158 27.1333 144.838 26.76C145.531 26.3867 146.391 26.2 147.418 26.2V28.58C147.311 28.5533 147.211 28.54 147.118 28.54C147.024 28.5267 146.931 28.52 146.838 28.52C145.891 28.52 145.138 28.8 144.578 29.36C144.018 29.9067 143.738 30.7267 143.738 31.82V37H141.238ZM154.241 37.14C153.147 37.14 152.174 36.9067 151.321 36.44C150.467 35.96 149.794 35.3067 149.301 34.48C148.807 33.6533 148.561 32.7133 148.561 31.66C148.561 30.5933 148.807 29.6533 149.301 28.84C149.794 28.0133 150.467 27.3667 151.321 26.9C152.174 26.4333 153.147 26.2 154.241 26.2C155.347 26.2 156.327 26.4333 157.181 26.9C158.047 27.3667 158.721 28.0067 159.201 28.82C159.694 29.6333 159.941 30.58 159.941 31.66C159.941 32.7133 159.694 33.6533 159.201 34.48C158.721 35.3067 158.047 35.96 157.181 36.44C156.327 36.9067 155.347 37.14 154.241 37.14ZM154.241 35C154.854 35 155.401 34.8667 155.881 34.6C156.361 34.3333 156.734 33.9467 157.001 33.44C157.281 32.9333 157.421 32.34 157.421 31.66C157.421 30.9667 157.281 30.3733 157.001 29.88C156.734 29.3733 156.361 28.9867 155.881 28.72C155.401 28.4533 154.861 28.32 154.261 28.32C153.647 28.32 153.101 28.4533 152.621 28.72C152.154 28.9867 151.781 29.3733 151.501 29.88C151.221 30.3733 151.081 30.9667 151.081 31.66C151.081 32.34 151.221 32.9333 151.501 33.44C151.781 33.9467 152.154 34.3333 152.621 34.6C153.101 34.8667 153.641 35 154.241 35ZM167.171 41.02C166.185 41.02 165.218 40.8867 164.271 40.62C163.338 40.3667 162.571 39.9933 161.971 39.5L163.091 37.62C163.558 38.0067 164.145 38.3133 164.851 38.54C165.571 38.78 166.298 38.9 167.031 38.9C168.205 38.9 169.065 38.6267 169.611 38.08C170.158 37.5467 170.431 36.74 170.431 35.66V33.76L170.631 31.34L170.551 28.92V26.32H172.931V35.38C172.931 37.3133 172.438 38.7333 171.451 39.64C170.465 40.56 169.038 41.02 167.171 41.02ZM166.851 36.52C165.838 36.52 164.918 36.3067 164.091 35.88C163.278 35.44 162.631 34.8333 162.151 34.06C161.685 33.2867 161.451 32.38 161.451 31.34C161.451 30.3133 161.685 29.4133 162.151 28.64C162.631 27.8667 163.278 27.2667 164.091 26.84C164.918 26.4133 165.838 26.2 166.851 26.2C167.758 26.2 168.571 26.38 169.291 26.74C170.011 27.1 170.585 27.66 171.011 28.42C171.451 29.18 171.671 30.1533 171.671 31.34C171.671 32.5267 171.451 33.5067 171.011 34.28C170.585 35.04 170.011 35.6067 169.291 35.98C168.571 36.34 167.758 36.52 166.851 36.52ZM167.231 34.4C167.858 34.4 168.418 34.2733 168.911 34.02C169.405 33.7533 169.785 33.3933 170.051 32.94C170.331 32.4733 170.471 31.94 170.471 31.34C170.471 30.74 170.331 30.2133 170.051 29.76C169.785 29.2933 169.405 28.94 168.911 28.7C168.418 28.4467 167.858 28.32 167.231 28.32C166.605 28.32 166.038 28.4467 165.531 28.7C165.038 28.94 164.651 29.2933 164.371 29.76C164.105 30.2133 163.971 30.74 163.971 31.34C163.971 31.94 164.105 32.4733 164.371 32.94C164.651 33.3933 165.038 33.7533 165.531 34.02C166.038 34.2733 166.605 34.4 167.231 34.4ZM176.218 37V26.32H178.598V29.26L178.318 28.4C178.638 27.68 179.138 27.1333 179.818 26.76C180.511 26.3867 181.371 26.2 182.398 26.2V28.58C182.291 28.5533 182.191 28.54 182.098 28.54C182.005 28.5267 181.911 28.52 181.818 28.52C180.871 28.52 180.118 28.8 179.558 29.36C178.998 29.9067 178.718 30.7267 178.718 31.82V37H176.218ZM190.337 37V34.84L190.197 34.38V30.6C190.197 29.8667 189.977 29.3 189.537 28.9C189.097 28.4867 188.431 28.28 187.537 28.28C186.937 28.28 186.344 28.3733 185.757 28.56C185.184 28.7467 184.697 29.0067 184.297 29.34L183.317 27.52C183.891 27.08 184.571 26.7533 185.357 26.54C186.157 26.3133 186.984 26.2 187.837 26.2C189.384 26.2 190.577 26.5733 191.417 27.32C192.271 28.0533 192.697 29.1933 192.697 30.74V37H190.337ZM186.977 37.14C186.177 37.14 185.477 37.0067 184.877 36.74C184.277 36.46 183.811 36.08 183.477 35.6C183.157 35.1067 182.997 34.5533 182.997 33.94C182.997 33.34 183.137 32.8 183.417 32.32C183.711 31.84 184.184 31.46 184.837 31.18C185.491 30.9 186.357 30.76 187.437 30.76H190.537V32.42H187.617C186.764 32.42 186.191 32.56 185.897 32.84C185.604 33.1067 185.457 33.44 185.457 33.84C185.457 34.2933 185.637 34.6533 185.997 34.92C186.357 35.1867 186.857 35.32 187.497 35.32C188.111 35.32 188.657 35.18 189.137 34.9C189.631 34.62 189.984 34.2067 190.197 33.66L190.617 35.16C190.377 35.7867 189.944 36.2733 189.317 36.62C188.704 36.9667 187.924 37.14 186.977 37.14ZM209.386 26.2C210.239 26.2 210.992 26.3667 211.646 26.7C212.312 27.0333 212.832 27.5467 213.206 28.24C213.579 28.92 213.766 29.8 213.766 30.88V37H211.266V31.2C211.266 30.2533 211.059 29.5467 210.646 29.08C210.232 28.6133 209.639 28.38 208.866 28.38C208.319 28.38 207.832 28.5 207.406 28.74C206.992 28.98 206.666 29.3333 206.426 29.8C206.199 30.2667 206.086 30.86 206.086 31.58V37H203.586V31.2C203.586 30.2533 203.379 29.5467 202.966 29.08C202.552 28.6133 201.959 28.38 201.186 28.38C200.639 28.38 200.152 28.5 199.726 28.74C199.312 28.98 198.986 29.3333 198.746 29.8C198.519 30.2667 198.406 30.86 198.406 31.58V37H195.906V26.32H198.286V29.16L197.866 28.32C198.226 27.6267 198.746 27.1 199.426 26.74C200.119 26.38 200.906 26.2 201.786 26.2C202.786 26.2 203.652 26.4467 204.386 26.94C205.132 27.4333 205.626 28.18 205.866 29.18L204.886 28.84C205.232 28.04 205.806 27.4 206.606 26.92C207.406 26.44 208.332 26.2 209.386 26.2ZM230.44 26.2C231.294 26.2 232.047 26.3667 232.7 26.7C233.367 27.0333 233.887 27.5467 234.26 28.24C234.634 28.92 234.82 29.8 234.82 30.88V37H232.32V31.2C232.32 30.2533 232.114 29.5467 231.7 29.08C231.287 28.6133 230.694 28.38 229.92 28.38C229.374 28.38 228.887 28.5 228.46 28.74C228.047 28.98 227.72 29.3333 227.48 29.8C227.254 30.2667 227.14 30.86 227.14 31.58V37H224.64V31.2C224.64 30.2533 224.434 29.5467 224.02 29.08C223.607 28.6133 223.014 28.38 222.24 28.38C221.694 28.38 221.207 28.5 220.78 28.74C220.367 28.98 220.04 29.3333 219.8 29.8C219.574 30.2667 219.46 30.86 219.46 31.58V37H216.96V26.32H219.34V29.16L218.92 28.32C219.28 27.6267 219.8 27.1 220.48 26.74C221.174 26.38 221.96 26.2 222.84 26.2C223.84 26.2 224.707 26.4467 225.44 26.94C226.187 27.4333 226.68 28.18 226.92 29.18L225.94 28.84C226.287 28.04 226.86 27.4 227.66 26.92C228.46 26.44 229.387 26.2 230.44 26.2ZM243.055 37.14C241.868 37.14 240.828 36.9067 239.935 36.44C239.055 35.96 238.368 35.3067 237.875 34.48C237.395 33.6533 237.155 32.7133 237.155 31.66C237.155 30.5933 237.388 29.6533 237.855 28.84C238.335 28.0133 238.988 27.3667 239.815 26.9C240.655 26.4333 241.608 26.2 242.675 26.2C243.715 26.2 244.641 26.4267 245.455 26.88C246.268 27.3333 246.908 27.9733 247.375 28.8C247.841 29.6267 248.075 30.6 248.075 31.72C248.075 31.8267 248.068 31.9467 248.055 32.08C248.055 32.2133 248.048 32.34 248.035 32.46H239.135V30.8H246.715L245.735 31.32C245.748 30.7067 245.621 30.1667 245.355 29.7C245.088 29.2333 244.721 28.8667 244.255 28.6C243.801 28.3333 243.275 28.2 242.675 28.2C242.061 28.2 241.521 28.3333 241.055 28.6C240.601 28.8667 240.241 29.24 239.975 29.72C239.721 30.1867 239.595 30.74 239.595 31.38V31.78C239.595 32.42 239.741 32.9867 240.035 33.48C240.328 33.9733 240.741 34.3533 241.275 34.62C241.808 34.8867 242.421 35.02 243.115 35.02C243.715 35.02 244.255 34.9267 244.735 34.74C245.215 34.5533 245.641 34.26 246.015 33.86L247.355 35.4C246.875 35.96 246.268 36.3933 245.535 36.7C244.815 36.9933 243.988 37.14 243.055 37.14ZM253.776 37.14C252.883 37.14 252.023 37.0267 251.196 36.8C250.383 36.56 249.736 36.2733 249.256 35.94L250.216 34.04C250.696 34.3467 251.269 34.6 251.936 34.8C252.603 35 253.269 35.1 253.936 35.1C254.723 35.1 255.289 34.9933 255.636 34.78C255.996 34.5667 256.176 34.28 256.176 33.92C256.176 33.6267 256.056 33.4067 255.816 33.26C255.576 33.1 255.263 32.98 254.876 32.9C254.489 32.82 254.056 32.7467 253.576 32.68C253.109 32.6133 252.636 32.5267 252.156 32.42C251.689 32.3 251.263 32.1333 250.876 31.92C250.489 31.6933 250.176 31.3933 249.936 31.02C249.696 30.6467 249.576 30.1533 249.576 29.54C249.576 28.86 249.769 28.2733 250.156 27.78C250.543 27.2733 251.083 26.8867 251.776 26.62C252.483 26.34 253.316 26.2 254.276 26.2C254.996 26.2 255.723 26.28 256.456 26.44C257.189 26.6 257.796 26.8267 258.276 27.12L257.316 29.02C256.809 28.7133 256.296 28.5067 255.776 28.4C255.269 28.28 254.763 28.22 254.256 28.22C253.496 28.22 252.929 28.3333 252.556 28.56C252.196 28.7867 252.016 29.0733 252.016 29.42C252.016 29.74 252.136 29.98 252.376 30.14C252.616 30.3 252.929 30.4267 253.316 30.52C253.703 30.6133 254.129 30.6933 254.596 30.76C255.076 30.8133 255.549 30.9 256.016 31.02C256.483 31.14 256.909 31.3067 257.296 31.52C257.696 31.72 258.016 32.0067 258.256 32.38C258.496 32.7533 258.616 33.24 258.616 33.84C258.616 34.5067 258.416 35.0867 258.016 35.58C257.629 36.0733 257.076 36.46 256.356 36.74C255.636 37.0067 254.776 37.14 253.776 37.14Z" fill="white"/>
<g clip-path="url(#clip0_260_720)">
<path d="M297.725 29.3364C297.725 29.3361 297.725 29.3358 297.724 29.3355L292.826 24.4605C292.459 24.0953 291.865 24.0967 291.5 24.4637C291.134 24.8307 291.136 25.4242 291.503 25.7895L294.792 29.0625H274.938C274.42 29.0625 274 29.4822 274 30C274 30.5178 274.42 30.9375 274.938 30.9375H294.792L291.503 34.2105C291.136 34.5757 291.135 35.1693 291.5 35.5363C291.865 35.9034 292.459 35.9047 292.826 35.5395L297.724 30.6645C297.725 30.6642 297.725 30.6639 297.725 30.6636C298.092 30.2971 298.091 29.7016 297.725 29.3364Z" fill="white"/>
</g>
<defs>
<clipPath id="clip0_260_720">
<rect width="24" height="24" fill="white" transform="translate(274 18)"/>
</clipPath>
</defs>
</svg>
